<svg id="visual" viewBox="0 0 900 200" width="900" height="200" xmlns="http://www.w3.org/2000/svg" xmlns:xlink="http://www.w3.org/1999/xlink" version="1.1"><path d="M0 144L15 140.3C30 136.7 60 129.3 90 124.3C120 119.3 150 116.7 180 120.2C210 123.7 240 133.3 270 134.7C300 136 330 129 360 129.2C390 129.3 420 136.7 450 139C480 141.3 510 138.7 540 138.8C570 139 600 142 630 146.2C660 150.3 690 155.7 720 153.3C750 151 780 141 810 141C840 141 870 151 885 156L900 161L900 0L885 0C870 0 840 0 810 0C780 0 750 0 720 0C690 0 660 0 630 0C600 0 570 0 540 0C510 0 480 0 450 0C420 0 390 0 360 0C330 0 300 0 270 0C240 0 210 0 180 0C150 0 120 0 90 0C60 0 30 0 15 0L0 0Z" fill="#fa69ed"></path><path d="M0 152L15 149.3C30 146.7 60 141.3 90 135.2C120 129 150 122 180 123.8C210 125.7 240 136.3 270 141.8C300 147.3 330 147.7 360 142.8C390 138 420 128 450 128.3C480 128.7 510 139.3 540 141.2C570 143 600 136 630 135C660 134 690 139 720 139.2C750 139.3 780 134.7 810 129.7C840 124.7 870 119.3 885 116.7L900 114L900 0L885 0C870 0 840 0 810 0C780 0 750 0 720 0C690 0 660 0 630 0C600 0 570 0 540 0C510 0 480 0 450 0C420 0 390 0 360 0C330 0 300 0 270 0C240 0 210 0 180 0C150 0 120 0 90 0C60 0 30 0 15 0L0 0Z" fill="#d184ff"></path><path d="M0 100L15 102.5C30 105 60 110 90 108.7C120 107.3 150 99.7 180 102.2C210 104.7 240 117.3 270 122.2C300 127 330 124 360 123.2C390 122.3 420 123.7 450 125.7C480 127.7 510 130.3 540 125.7C570 121 600 109 630 102.2C660 95.3 690 93.7 720 97.7C750 101.7 780 111.3 810 112.7C840 114 870 107 885 103.5L900 100L900 0L885 0C870 0 840 0 810 0C780 0 750 0 720 0C690 0 660 0 630 0C600 0 570 0 540 0C510 0 480 0 450 0C420 0 390 0 360 0C330 0 300 0 270 0C240 0 210 0 180 0C150 0 120 0 90 0C60 0 30 0 15 0L0 0Z" fill="#a298ff"></path><path d="M0 91L15 91.3C30 91.7 60 92.3 90 95.2C120 98 150 103 180 101.5C210 100 240 92 270 90.3C300 88.7 330 93.3 360 93.7C390 94 420 90 450 87.7C480 85.3 510 84.7 540 86.3C570 88 600 92 630 95.2C660 98.3 690 100.7 720 104.3C750 108 780 113 810 114.8C840 116.7 870 115.3 885 114.7L900 114L900 0L885 0C870 0 840 0 810 0C780 0 750 0 720 0C690 0 660 0 630 0C600 0 570 0 540 0C510 0 480 0 450 0C420 0 390 0 360 0C330 0 300 0 270 0C240 0 210 0 180 0C150 0 120 0 90 0C60 0 30 0 15 0L0 0Z" fill="#6fa7ff"></path><path d="M0 110L15 105.2C30 100.3 60 90.7 90 84.2C120 77.7 150 74.3 180 76.5C210 78.7 240 86.3 270 86.5C300 86.7 330 79.3 360 77.7C390 76 420 80 450 83C480 86 510 88 540 86.5C570 85 600 80 630 81.8C660 83.7 690 92.3 720 94.8C750 97.3 780 93.7 810 92.2C840 90.7 870 91.3 885 91.7L900 92L900 0L885 0C870 0 840 0 810 0C780 0 750 0 720 0C690 0 660 0 630 0C600 0 570 0 540 0C510 0 480 0 450 0C420 0 390 0 360 0C330 0 300 0 270 0C240 0 210 0 180 0C150 0 120 0 90 0C60 0 30 0 15 0L0 0Z" fill="#3ab2ff"></path><path d="M0 77L15 74.5C30 72 60 67 90 64.8C120 62.7 150 63.3 180 66.3C210 69.3 240 74.7 270 79.7C300 84.7 330 89.3 360 87C390 84.7 420 75.3 450 70.3C480 65.3 510 64.7 540 65.7C570 66.7 600 69.3 630 74.2C660 79 690 86 720 87.8C750 89.7 780 86.3 810 86.5C840 86.7 870 90.3 885 92.2L900 94L900 0L885 0C870 0 840 0 810 0C780 0 750 0 720 0C690 0 660 0 630 0C600 0 570 0 540 0C510 0 480 0 450 0C420 0 390 0 360 0C330 0 300 0 270 0C240 0 210 0 180 0C150 0 120 0 90 0C60 0 30 0 15 0L0 0Z" fill="#00baff"></path><path d="M0 51L15 52.5C30 54 60 57 90 60.5C120 64 150 68 180 70.7C210 73.3 240 74.7 270 73.3C300 72 330 68 360 65.7C390 63.3 420 62.7 450 62.7C480 62.7 510 63.3 540 63.3C570 63.3 600 62.7 630 60.2C660 57.7 690 53.3 720 52.8C750 52.3 780 55.7 810 60C840 64.3 870 69.7 885 72.3L900 75L900 0L885 0C870 0 840 0 810 0C780 0 750 0 720 0C690 0 660 0 630 0C600 0 570 0 540 0C510 0 480 0 450 0C420 0 390 0 360 0C330 0 300 0 270 0C240 0 210 0 180 0C150 0 120 0 90 0C60 0 30 0 15 0L0 0Z" fill="#00bff5"></path><path d="M0 45L15 48C30 51 60 57 90 58.7C120 60.3 150 57.7 180 56.8C210 56 240 57 270 57.3C300 57.7 330 57.3 360 57.5C390 57.7 420 58.3 450 57.5C480 56.7 510 54.3 540 53C570 51.7 600 51.3 630 52.3C660 53.3 690 55.7 720 54.8C750 54 780 50 810 50.7C840 51.3 870 56.7 885 59.3L900 62L900 0L885 0C870 0 840 0 810 0C780 0 750 0 720 0C690 0 660 0 630 0C600 0 570 0 540 0C510 0 480 0 450 0C420 0 390 0 360 0C330 0 300 0 270 0C240 0 210 0 180 0C150 0 120 0 90 0C60 0 30 0 15 0L0 0Z" fill="#00c3e6"></path><path d="M0 40L15 40.8C30 41.7 60 43.3 90 41.7C120 40 150 35 180 34.8C210 34.7 240 39.3 270 42C300 44.7 330 45.3 360 46.5C390 47.7 420 49.3 450 49.8C480 50.3 510 49.7 540 47C570 44.3 600 39.7 630 39.5C660 39.3 690 43.7 720 43.3C750 43 780 38 810 37.8C840 37.7 870 42.3 885 44.7L900 47L900 0L885 0C870 0 840 0 810 0C780 0 750 0 720 0C690 0 660 0 630 0C600 0 570 0 540 0C510 0 480 0 450 0C420 0 390 0 360 0C330 0 300 0 270 0C240 0 210 0 180 0C150 0 120 0 90 0C60 0 30 0 15 0L0 0Z" fill="#00c6d2"></path><path d="M0 22L15 22.8C30 23.7 60 25.3 90 25.8C120 26.3 150 25.7 180 24.5C210 23.3 240 21.7 270 20.5C300 19.3 330 18.7 360 18.5C390 18.3 420 18.7 450 18.8C480 19 510 19 540 20.7C570 22.3 600 25.7 630 25.8C660 26 690 23 720 22.7C750 22.3 780 24.7 810 25C840 25.3 870 23.7 885 22.8L900 22L900 0L885 0C870 0 840 0 810 0C780 0 750 0 720 0C690 0 660 0 630 0C600 0 570 0 540 0C510 0 480 0 450 0C420 0 390 0 360 0C330 0 300 0 270 0C240 0 210 0 180 0C150 0 120 0 90 0C60 0 30 0 15 0L0 0Z" fill="#00c7bc"></path><path d="M0 13L15 14.2C30 15.3 60 17.7 90 18.5C120 19.3 150 18.7 180 19.2C210 19.7 240 21.3 270 21.2C300 21 330 19 360 16.8C390 14.7 420 12.3 450 11.5C480 10.7 510 11.3 540 12.2C570 13 600 14 630 15.3C660 16.7 690 18.3 720 17.2C750 16 780 12 810 12C840 12 870 16 885 18L900 20L900 0L885 0C870 0 840 0 810 0C780 0 750 0 720 0C690 0 660 0 630 0C600 0 570 0 540 0C510 0 480 0 450 0C420 0 390 0 360 0C330 0 300 0 270 0C240 0 210 0 180 0C150 0 120 0 90 0C60 0 30 0 15 0L0 0Z" fill="#24c7a4"></path></svg>