<svg id="visual" viewBox="0 0 900 150" width="900" height="150" xmlns="http://www.w3.org/2000/svg" xmlns:xlink="http://www.w3.org/1999/xlink" version="1.1"><rect x="0" y="0" width="900" height="150" fill="#1E1042"></rect><path d="M0 71L12.5 71.7C25 72.3 50 73.7 75 73.3C100 73 125 71 150 75.5C175 80 200 91 225 91.7C250 92.3 275 82.7 300 81.8C325 81 350 89 375 86.8C400 84.7 425 72.3 450 69.3C475 66.3 500 72.7 525 80.8C550 89 575 99 600 98.5C625 98 650 87 675 82C700 77 725 78 750 80.8C775 83.7 800 88.3 825 84.5C850 80.7 875 68.3 887.5 62.2L900 56L900 151L887.5 151C875 151 850 151 825 151C800 151 775 151 750 151C725 151 700 151 675 151C650 151 625 151 600 151C575 151 550 151 525 151C500 151 475 151 450 151C425 151 400 151 375 151C350 151 325 151 300 151C275 151 250 151 225 151C200 151 175 151 150 151C125 151 100 151 75 151C50 151 25 151 12.5 151L0 151Z" fill="#00BDF2" stroke-linecap="round" stroke-linejoin="miter"></path></svg>