<svg id="visual" viewBox="0 0 960 540" width="960" height="540" xmlns="http://www.w3.org/2000/svg" xmlns:xlink="http://www.w3.org/1999/xlink" version="1.1"><path d="M0 312L16 304.2C32 296.3 64 280.7 96 270C128 259.3 160 253.7 192 261.3C224 269 256 290 288 292.8C320 295.7 352 280.3 384 280.7C416 281 448 297 480 301.8C512 306.7 544 300.3 576 300.7C608 301 640 308 672 317.3C704 326.7 736 338.3 768 333C800 327.7 832 305.3 864 305.3C896 305.3 928 327.7 944 338.8L960 350L960 0L944 0C928 0 896 0 864 0C832 0 800 0 768 0C736 0 704 0 672 0C640 0 608 0 576 0C544 0 512 0 480 0C448 0 416 0 384 0C352 0 320 0 288 0C256 0 224 0 192 0C160 0 128 0 96 0C64 0 32 0 16 0L0 0Z" fill="#fa69ed"></path><path d="M0 329L16 323.5C32 318 64 307 96 293.7C128 280.3 160 264.7 192 268.5C224 272.3 256 295.7 288 307.7C320 319.7 352 320.3 384 309.8C416 299.3 448 277.7 480 278.3C512 279 544 302 576 306C608 310 640 295 672 292.8C704 290.7 736 301.3 768 301.5C800 301.7 832 291.3 864 280.3C896 269.3 928 257.7 944 251.8L960 246L960 0L944 0C928 0 896 0 864 0C832 0 800 0 768 0C736 0 704 0 672 0C640 0 608 0 576 0C544 0 512 0 480 0C448 0 416 0 384 0C352 0 320 0 288 0C256 0 224 0 192 0C160 0 128 0 96 0C64 0 32 0 16 0L0 0Z" fill="#d184ff"></path><path d="M0 218L16 223.3C32 228.7 64 239.3 96 236.2C128 233 160 216 192 221.3C224 226.7 256 254.3 288 265C320 275.7 352 269.3 384 267.5C416 265.7 448 268.3 480 272.5C512 276.7 544 282.3 576 272.2C608 262 640 236 672 221.2C704 206.3 736 202.7 768 211.3C800 220 832 241 864 244.2C896 247.3 928 232.7 944 225.3L960 218L960 0L944 0C928 0 896 0 864 0C832 0 800 0 768 0C736 0 704 0 672 0C640 0 608 0 576 0C544 0 512 0 480 0C448 0 416 0 384 0C352 0 320 0 288 0C256 0 224 0 192 0C160 0 128 0 96 0C64 0 32 0 16 0L0 0Z" fill="#a298ff"></path><path d="M0 197L16 198C32 199 64 201 96 207.3C128 213.7 160 224.3 192 220.8C224 217.3 256 199.7 288 196C320 192.3 352 202.7 384 203.7C416 204.7 448 196.3 480 191.3C512 186.3 544 184.7 576 188C608 191.3 640 199.7 672 206.5C704 213.3 736 218.7 768 226.7C800 234.7 832 245.3 864 249.3C896 253.3 928 250.7 944 249.3L960 248L960 0L944 0C928 0 896 0 864 0C832 0 800 0 768 0C736 0 704 0 672 0C640 0 608 0 576 0C544 0 512 0 480 0C448 0 416 0 384 0C352 0 320 0 288 0C256 0 224 0 192 0C160 0 128 0 96 0C64 0 32 0 16 0L0 0Z" fill="#6fa7ff"></path><path d="M0 239L16 228.5C32 218 64 197 96 183C128 169 160 162 192 166.8C224 171.7 256 188.3 288 188.7C320 189 352 173 384 169.2C416 165.3 448 173.7 480 180.2C512 186.7 544 191.3 576 188.2C608 185 640 174 672 178C704 182 736 201 768 206.5C800 212 832 204 864 200.7C896 197.3 928 198.7 944 199.3L960 200L960 0L944 0C928 0 896 0 864 0C832 0 800 0 768 0C736 0 704 0 672 0C640 0 608 0 576 0C544 0 512 0 480 0C448 0 416 0 384 0C352 0 320 0 288 0C256 0 224 0 192 0C160 0 128 0 96 0C64 0 32 0 16 0L0 0Z" fill="#3ab2ff"></path><path d="M0 167L16 161.5C32 156 64 145 96 140.3C128 135.7 160 137.3 192 144C224 150.7 256 162.3 288 173.2C320 184 352 194 384 188.8C416 183.7 448 163.3 480 152.5C512 141.7 544 140.3 576 142.8C608 145.3 640 151.7 672 162C704 172.3 736 186.7 768 190.3C800 194 832 187 864 187.5C896 188 928 196 944 200L960 204L960 0L944 0C928 0 896 0 864 0C832 0 800 0 768 0C736 0 704 0 672 0C640 0 608 0 576 0C544 0 512 0 480 0C448 0 416 0 384 0C352 0 320 0 288 0C256 0 224 0 192 0C160 0 128 0 96 0C64 0 32 0 16 0L0 0Z" fill="#00baff"></path><path d="M0 111L16 114.5C32 118 64 125 96 132.5C128 140 160 148 192 153.7C224 159.3 256 162.7 288 160C320 157.3 352 148.7 384 143.5C416 138.3 448 136.7 480 136.5C512 136.3 544 137.7 576 137.7C608 137.7 640 136.3 672 131.2C704 126 736 117 768 116.2C800 115.3 832 122.7 864 131.8C896 141 928 152 944 157.5L960 163L960 0L944 0C928 0 896 0 864 0C832 0 800 0 768 0C736 0 704 0 672 0C640 0 608 0 576 0C544 0 512 0 480 0C448 0 416 0 384 0C352 0 320 0 288 0C256 0 224 0 192 0C160 0 128 0 96 0C64 0 32 0 16 0L0 0Z" fill="#00bff5"></path><path d="M0 98L16 104.5C32 111 64 124 96 127.7C128 131.3 160 125.7 192 123.8C224 122 256 124 288 124.5C320 125 352 124 384 124.5C416 125 448 127 480 125.3C512 123.7 544 118.3 576 115.5C608 112.7 640 112.3 672 114.3C704 116.3 736 120.7 768 118.8C800 117 832 109 864 110.5C896 112 928 123 944 128.5L960 134L960 0L944 0C928 0 896 0 864 0C832 0 800 0 768 0C736 0 704 0 672 0C640 0 608 0 576 0C544 0 512 0 480 0C448 0 416 0 384 0C352 0 320 0 288 0C256 0 224 0 192 0C160 0 128 0 96 0C64 0 32 0 16 0L0 0Z" fill="#00c3e6"></path><path d="M0 87L16 88.8C32 90.7 64 94.3 96 90.8C128 87.3 160 76.7 192 76.2C224 75.7 256 85.3 288 91C320 96.7 352 98.3 384 101C416 103.7 448 107.3 480 108.5C512 109.7 544 108.3 576 102.7C608 97 640 87 672 86.7C704 86.3 736 95.7 768 94.8C800 94 832 83 864 82.5C896 82 928 92 944 97L960 102L960 0L944 0C928 0 896 0 864 0C832 0 800 0 768 0C736 0 704 0 672 0C640 0 608 0 576 0C544 0 512 0 480 0C448 0 416 0 384 0C352 0 320 0 288 0C256 0 224 0 192 0C160 0 128 0 96 0C64 0 32 0 16 0L0 0Z" fill="#00c6d2"></path><path d="M0 49L16 50.8C32 52.7 64 56.3 96 57.3C128 58.3 160 56.7 192 54C224 51.3 256 47.7 288 45.3C320 43 352 42 384 41.8C416 41.7 448 42.3 480 42.7C512 43 544 43 576 46.3C608 49.7 640 56.3 672 56.5C704 56.7 736 50.3 768 49.7C800 49 832 54 864 54.8C896 55.7 928 52.3 944 50.7L960 49L960 0L944 0C928 0 896 0 864 0C832 0 800 0 768 0C736 0 704 0 672 0C640 0 608 0 576 0C544 0 512 0 480 0C448 0 416 0 384 0C352 0 320 0 288 0C256 0 224 0 192 0C160 0 128 0 96 0C64 0 32 0 16 0L0 0Z" fill="#00c7bc"></path><path d="M0 29L16 31.5C32 34 64 39 96 40.8C128 42.7 160 41.3 192 42.5C224 43.7 256 47.3 288 47C320 46.7 352 42.3 384 37.5C416 32.7 448 27.3 480 25.3C512 23.3 544 24.7 576 26.7C608 28.7 640 31.3 672 34.3C704 37.3 736 40.7 768 38.2C800 35.7 832 27.3 864 27.5C896 27.7 928 36.3 944 40.7L960 45L960 0L944 0C928 0 896 0 864 0C832 0 800 0 768 0C736 0 704 0 672 0C640 0 608 0 576 0C544 0 512 0 480 0C448 0 416 0 384 0C352 0 320 0 288 0C256 0 224 0 192 0C160 0 128 0 96 0C64 0 32 0 16 0L0 0Z" fill="#24c7a4"></path></svg>