<svg id="visual" viewBox="0 0 900 300" width="900" height="300" xmlns="http://www.w3.org/2000/svg" xmlns:xlink="http://www.w3.org/1999/xlink" version="1.1"><rect x="0" y="0" width="900" height="300" fill="#001220"></rect><path d="M0 277L13.7 265.2C27.3 253.3 54.7 229.7 82 213.7C109.3 197.7 136.7 189.3 163.8 200C191 210.7 218 240.3 245.2 244.3C272.3 248.3 299.7 226.7 327 220C354.3 213.3 381.7 221.7 409 221C436.3 220.3 463.7 210.7 491 218C518.3 225.3 545.7 249.7 573 247.5C600.3 245.3 627.7 216.7 654.8 204.3C682 192 709 196 736.2 199.5C763.3 203 790.7 206 818 213.8C845.3 221.7 872.7 234.3 886.3 240.7L900 247L900 0L886.3 0C872.7 0 845.3 0 818 0C790.7 0 763.3 0 736.2 0C709 0 682 0 654.8 0C627.7 0 600.3 0 573 0C545.7 0 518.3 0 491 0C463.7 0 436.3 0 409 0C381.7 0 354.3 0 327 0C299.7 0 272.3 0 245.2 0C218 0 191 0 163.8 0C136.7 0 109.3 0 82 0C54.7 0 27.3 0 13.7 0L0 0Z" fill="#fa69ed"></path><path d="M0 185L13.7 180.7C27.3 176.3 54.7 167.7 82 165C109.3 162.3 136.7 165.7 163.8 173.5C191 181.3 218 193.7 245.2 191.5C272.3 189.3 299.7 172.7 327 165.8C354.3 159 381.7 162 409 175.7C436.3 189.3 463.7 213.7 491 217.2C518.3 220.7 545.7 203.3 573 190.2C600.3 177 627.7 168 654.8 172.8C682 177.7 709 196.3 736.2 205.7C763.3 215 790.7 215 818 218.8C845.3 222.7 872.7 230.3 886.3 234.2L900 238L900 0L886.3 0C872.7 0 845.3 0 818 0C790.7 0 763.3 0 736.2 0C709 0 682 0 654.8 0C627.7 0 600.3 0 573 0C545.7 0 518.3 0 491 0C463.7 0 436.3 0 409 0C381.7 0 354.3 0 327 0C299.7 0 272.3 0 245.2 0C218 0 191 0 163.8 0C136.7 0 109.3 0 82 0C54.7 0 27.3 0 13.7 0L0 0Z" fill="#c28aff"></path><path d="M0 186L13.7 176C27.3 166 54.7 146 82 136.2C109.3 126.3 136.7 126.7 163.8 127.3C191 128 218 129 245.2 130.2C272.3 131.3 299.7 132.7 327 134.7C354.3 136.7 381.7 139.3 409 149C436.3 158.7 463.7 175.3 491 176.7C518.3 178 545.7 164 573 157.8C600.3 151.7 627.7 153.3 654.8 159.7C682 166 709 177 736.2 174.2C763.3 171.3 790.7 154.7 818 152.8C845.3 151 872.7 164 886.3 170.5L900 177L900 0L886.3 0C872.7 0 845.3 0 818 0C790.7 0 763.3 0 736.2 0C709 0 682 0 654.8 0C627.7 0 600.3 0 573 0C545.7 0 518.3 0 491 0C463.7 0 436.3 0 409 0C381.7 0 354.3 0 327 0C299.7 0 272.3 0 245.2 0C218 0 191 0 163.8 0C136.7 0 109.3 0 82 0C54.7 0 27.3 0 13.7 0L0 0Z" fill="#889fff"></path><path d="M0 108L13.7 113C27.3 118 54.7 128 82 133.2C109.3 138.3 136.7 138.7 163.8 136.3C191 134 218 129 245.2 122.7C272.3 116.3 299.7 108.7 327 113.7C354.3 118.7 381.7 136.3 409 146.8C436.3 157.3 463.7 160.7 491 155.7C518.3 150.7 545.7 137.3 573 137.3C600.3 137.3 627.7 150.7 654.8 149.5C682 148.3 709 132.7 736.2 126.8C763.3 121 790.7 125 818 127.3C845.3 129.7 872.7 130.3 886.3 130.7L900 131L900 0L886.3 0C872.7 0 845.3 0 818 0C790.7 0 763.3 0 736.2 0C709 0 682 0 654.8 0C627.7 0 600.3 0 573 0C545.7 0 518.3 0 491 0C463.7 0 436.3 0 409 0C381.7 0 354.3 0 327 0C299.7 0 272.3 0 245.2 0C218 0 191 0 163.8 0C136.7 0 109.3 0 82 0C54.7 0 27.3 0 13.7 0L0 0Z" fill="#58acff"></path><path d="M0 104L13.7 101.3C27.3 98.7 54.7 93.3 82 88.2C109.3 83 136.7 78 163.8 79C191 80 218 87 245.2 95C272.3 103 299.7 112 327 114.3C354.3 116.7 381.7 112.3 409 112.2C436.3 112 463.7 116 491 120.2C518.3 124.3 545.7 128.7 573 126.2C600.3 123.7 627.7 114.3 654.8 104C682 93.7 709 82.3 736.2 87C763.3 91.7 790.7 112.3 818 111.7C845.3 111 872.7 89 886.3 78L900 67L900 0L886.3 0C872.7 0 845.3 0 818 0C790.7 0 763.3 0 736.2 0C709 0 682 0 654.8 0C627.7 0 600.3 0 573 0C545.7 0 518.3 0 491 0C463.7 0 436.3 0 409 0C381.7 0 354.3 0 327 0C299.7 0 272.3 0 245.2 0C218 0 191 0 163.8 0C136.7 0 109.3 0 82 0C54.7 0 27.3 0 13.7 0L0 0Z" fill="#2eb5fb"></path><path d="M0 98L13.7 92.7C27.3 87.3 54.7 76.7 82 73.3C109.3 70 136.7 74 163.8 72.7C191 71.3 218 64.7 245.2 60.7C272.3 56.7 299.7 55.3 327 54.7C354.3 54 381.7 54 409 61.2C436.3 68.3 463.7 82.7 491 83C518.3 83.3 545.7 69.7 573 61.5C600.3 53.3 627.7 50.7 654.8 56.3C682 62 709 76 736.2 82C763.3 88 790.7 86 818 85C845.3 84 872.7 84 886.3 84L900 84L900 0L886.3 0C872.7 0 845.3 0 818 0C790.7 0 763.3 0 736.2 0C709 0 682 0 654.8 0C627.7 0 600.3 0 573 0C545.7 0 518.3 0 491 0C463.7 0 436.3 0 409 0C381.7 0 354.3 0 327 0C299.7 0 272.3 0 245.2 0C218 0 191 0 163.8 0C136.7 0 109.3 0 82 0C54.7 0 27.3 0 13.7 0L0 0Z" fill="#00bdf2"></path><path d="M0 26L13.7 29.2C27.3 32.3 54.7 38.7 82 39.7C109.3 40.7 136.7 36.3 163.8 34.7C191 33 218 34 245.2 30.3C272.3 26.7 299.7 18.3 327 19.2C354.3 20 381.7 30 409 32.3C436.3 34.7 463.7 29.3 491 30.7C518.3 32 545.7 40 573 42C600.3 44 627.7 40 654.8 40C682 40 709 44 736.2 40.5C763.3 37 790.7 26 818 21.2C845.3 16.3 872.7 17.7 886.3 18.3L900 19L900 0L886.3 0C872.7 0 845.3 0 818 0C790.7 0 763.3 0 736.2 0C709 0 682 0 654.8 0C627.7 0 600.3 0 573 0C545.7 0 518.3 0 491 0C463.7 0 436.3 0 409 0C381.7 0 354.3 0 327 0C299.7 0 272.3 0 245.2 0C218 0 191 0 163.8 0C136.7 0 109.3 0 82 0C54.7 0 27.3 0 13.7 0L0 0Z" fill="#00c3e6"></path></svg>